<svg width="19" height="19" viewBox="0 0 19 19" fill="none" xmlns="http://www.w3.org/2000/svg">
<path d="M9.5 0C4.2617 0 0 4.2617 0 9.5C0 14.7383 4.2617 19 9.5 19C14.7383 19 19 14.7383 19 9.5C19 4.2617 14.7383 0 9.5 0ZM9.5 17.5C5.37636 17.5 1.5 13.6238 1.5 9.5C1.5 5.37616 5.37636 1.5 9.5 1.5C13.6236 1.5 17.5 5.37616 17.5 9.5C17.5 13.6238 13.6236 17.5 9.5 17.5Z" fill="#181D1F"/>
<path d="M14.4511 9.20667H10.1817V4.07338C10.1817 3.6414 9.8315 3.29117 9.39952 3.29117C8.96755 3.29117 8.61731 3.6414 8.61731 4.07338V9.98888C8.61731 10.4209 8.96755 10.7711 9.39952 10.7711H14.4511C14.883 10.7711 15.2333 10.4209 15.2333 9.98888C15.2333 9.55691 14.883 9.20667 14.4511 9.20667Z" fill="#181D1F"/>
</svg>
