<svg width="19" height="17" viewBox="0 0 19 17" fill="none" xmlns="http://www.w3.org/2000/svg">
<path d="M0.65636 10.1181H2.20398V16.3085C2.20398 16.6733 2.50245 16.9718 2.86724 16.9718H7.39954C7.76433 16.9718 8.0628 16.6733 8.0628 16.3085V11.7763H10.8264V16.3085C10.8264 16.6733 11.1248 16.9718 11.4896 16.9718H15.8008C16.1656 16.9718 16.4641 16.6733 16.4641 16.3085V10.1181H18.3433C18.6086 10.1181 18.8518 9.95229 18.9513 9.7091C19.0508 9.46592 18.9955 9.17849 18.8076 8.99056L10.1631 0.224475C9.90885 -0.0297874 9.48881 -0.0408288 9.23454 0.213434L0.203158 8.97952C0.00417971 9.16745 -0.051105 9.45484 0.0483841 9.7091C0.147873 9.96333 0.391056 10.1181 0.65636 10.1181ZM9.67671 1.62836L16.7515 8.79158H15.8008C15.436 8.79158 15.1375 9.09005 15.1375 9.45484V15.6453H12.1529V11.113C12.1529 10.7482 11.8544 10.4497 11.4896 10.4497H7.39954C7.03474 10.4497 6.73628 10.7482 6.73628 11.113V15.6453H3.5305V9.45484C3.5305 9.09005 3.23204 8.79158 2.86724 8.79158H2.29243L9.67671 1.62836Z" fill="black"/>
</svg>
