<svg width="20" height="18" viewBox="0 0 20 18" fill="none" xmlns="http://www.w3.org/2000/svg">
<path d="M14.8624 6.66054L10.8257 0.605498C10.6422 0.422012 10.367 0.238525 10.0917 0.238525C9.81651 0.238525 9.54128 0.330269 9.3578 0.605498L5.3211 6.66054H0.917431C0.366972 6.66054 0 7.02752 0 7.57797C0 7.66972 0 7.76146 0 7.8532L2.29358 16.3853C2.47706 17.1193 3.21101 17.7615 4.0367 17.7615H15.9633C16.789 17.7615 17.5229 17.211 17.7064 16.3853L20 7.8532C20 7.76146 20 7.66972 20 7.57797C20 7.02752 19.633 6.66054 19.0826 6.66054H14.8624ZM7.33945 6.66054L10.0917 2.62385L12.844 6.66054H7.33945ZM10.0917 14C9.08257 14 8.25688 13.1743 8.25688 12.1651C8.25688 11.156 9.08257 10.3303 10.0917 10.3303C11.1009 10.3303 11.9266 11.156 11.9266 12.1651C11.9266 13.1743 11.1009 14 10.0917 14Z" fill="black"/>
</svg>
