<svg width="21" height="21" viewBox="0 0 21 21" fill="none" xmlns="http://www.w3.org/2000/svg">
<path d="M16.067 5.44512C16.067 6.08131 15.6039 6.46821 15.2657 6.75215C15.1376 6.85969 14.8992 7.05592 14.8998 7.12922C14.9021 7.41674 14.671 7.64636 14.3834 7.64636C14.3819 7.64636 14.3805 7.64636 14.379 7.64636C14.0935 7.64636 13.8608 7.4238 13.8585 7.13773C13.8539 6.57385 14.2654 6.23617 14.5961 5.95855C14.8556 5.74068 15.0257 5.58737 15.0257 5.44708C15.0257 5.16309 14.7946 4.93203 14.5107 4.93203C14.2265 4.93203 13.9954 5.16309 13.9954 5.44708C13.9954 5.73466 13.7623 5.96774 13.4748 5.96774C13.1872 5.96774 12.9541 5.73466 12.9541 5.44708C12.9541 4.58892 13.6523 3.89071 14.5105 3.89071C15.3688 3.89065 16.067 4.58689 16.067 5.44512ZM14.3934 8.12698C14.1059 8.12698 13.8843 8.36007 13.8843 8.64764V8.65164C13.8843 8.93921 14.1059 9.17033 14.3934 9.17033C14.681 9.17033 14.9141 8.93522 14.9141 8.64764C14.9141 8.36007 14.681 8.12698 14.3934 8.12698ZM3.89871 11.7538C3.61113 11.7538 3.37805 11.9869 3.37805 12.2745C3.37805 12.5621 3.61113 12.7952 3.89871 12.7952H3.9421C4.22968 12.7952 4.46276 12.5621 4.46276 12.2745C4.46276 11.9869 4.22968 11.7538 3.9421 11.7538H3.89871ZM5.70824 11.7538C5.42066 11.7538 5.18758 11.9869 5.18758 12.2745C5.18758 12.5621 5.42066 12.7952 5.70824 12.7952H5.75157C6.03915 12.7952 6.27223 12.5621 6.27223 12.2745C6.27223 11.9869 6.03915 11.7538 5.75157 11.7538H5.70824ZM21 3.43779V9.29818C21 10.6857 19.8874 11.8117 18.4998 11.8117H11.7476C11.6156 11.8117 11.5069 11.811 11.416 11.809C11.3207 11.8071 11.2134 11.8063 11.1716 11.8109C11.128 11.8399 11.0212 11.9377 10.9183 12.0325C10.8775 12.0701 10.8314 12.1114 10.7816 12.1568L8.8712 13.898C8.71882 14.0371 8.49337 14.073 8.30466 13.9899C8.11595 13.9066 7.98347 13.7198 7.98347 13.5135V7.99352H2.52926C1.71575 7.99352 1.04132 8.66014 1.04132 9.47353V15.3339C1.04132 16.1474 1.71581 16.7869 2.52926 16.7869H10.0716C10.2014 16.7869 10.3229 16.8466 10.4188 16.9341L11.9752 18.3691V13.4205C11.9752 13.133 12.2083 12.8999 12.4959 12.8999C12.7834 12.8999 13.0165 13.133 13.0165 13.4205V19.5492C13.0165 19.7554 12.8985 19.9395 12.7097 20.0228C12.6422 20.0526 12.5744 20.0643 12.5034 20.0643C12.3759 20.0643 12.2502 20.0119 12.1523 19.9226L9.86971 17.8282H2.52926C1.14164 17.8282 0 16.7215 0 15.3339V9.47353C0 8.08597 1.14164 6.9522 2.52926 6.9522H7.98347V3.43779C7.98347 2.05017 9.13384 0.935669 10.5215 0.935669H18.4999C19.8874 0.935669 21 2.05017 21 3.43779ZM19.9587 3.43779C19.9587 2.62435 19.3132 1.97699 18.4998 1.97699H10.5215C9.70802 1.97699 9.02479 2.62435 9.02479 3.43779V7.47772V12.3334L10.0716 11.3874C10.1201 11.3431 10.1744 11.3026 10.214 11.266C10.6921 10.8256 10.8144 10.7552 11.4379 10.768C11.5229 10.7698 11.6242 10.7704 11.7476 10.7704H18.4998C19.3132 10.7704 19.9587 10.1116 19.9587 9.29824V3.43779Z" fill="black"/>
</svg>
