<svg width="21" height="21" viewBox="0 0 21 21" fill="none" xmlns="http://www.w3.org/2000/svg">
<g clip-path="url(#clip0)">
<path d="M12.9609 6.39844C12.9609 5.32899 12.275 4.41719 11.3203 4.07865L11.3203 -4.01598e-07L9.67969 -4.73312e-07L9.67969 4.07865C8.72495 4.41719 8.03906 5.32899 8.03906 6.39844C8.03906 7.46789 8.72495 8.37968 9.67969 8.71822L9.67969 21L11.3203 21L11.3203 8.71822C12.275 8.37968 12.9609 7.46789 12.9609 6.39844ZM9.67969 6.39844C9.67969 5.94614 10.0477 5.57812 10.5 5.57812C10.9523 5.57812 11.3203 5.94614 11.3203 6.39844C11.3203 6.85073 10.9523 7.21875 10.5 7.21875C10.0477 7.21875 9.67969 6.85073 9.67969 6.39844ZM18.8672 17.4135C19.8219 17.075 20.5078 16.1632 20.5078 15.0938C20.5078 14.0243 19.8219 13.1125 18.8672 12.774L18.8672 -7.1714e-08L17.2266 -1.43428e-07L17.2266 12.774C16.2718 13.1125 15.5859 14.0243 15.5859 15.0937C15.5859 16.1632 16.2718 17.075 17.2266 17.4135L17.2266 21L18.8672 21L18.8672 17.4135ZM17.2266 15.0937C17.2266 14.6415 17.5946 14.2734 18.0469 14.2734C18.4992 14.2734 18.8672 14.6415 18.8672 15.0937C18.8672 15.546 18.4992 15.9141 18.0469 15.9141C17.5946 15.9141 17.2266 15.546 17.2266 15.0937ZM5.41406 13.5352C5.41406 12.4657 4.72817 11.5539 3.77344 11.2154L3.77344 -7.31483e-07L2.13281 -8.03197e-07L2.13281 11.2154C1.17808 11.5539 0.492187 12.4657 0.492187 13.5352C0.492187 14.6046 1.17808 15.5164 2.13281 15.8549L2.13281 21L3.77344 21L3.77344 15.8549C4.72817 15.5164 5.41406 14.6046 5.41406 13.5352ZM2.13281 13.5352C2.13281 13.0829 2.50083 12.7148 2.95312 12.7148C3.40542 12.7148 3.77344 13.0829 3.77344 13.5352C3.77344 13.9874 3.40542 14.3555 2.95312 14.3555C2.50083 14.3555 2.13281 13.9874 2.13281 13.5352Z" fill="white"/>
</g>
<defs>
<clipPath id="clip0">
<rect width="21" height="21" fill="white"/>
</clipPath>
</defs>
</svg>
