<svg width="20" height="19" viewBox="0 0 20 19" fill="none" xmlns="http://www.w3.org/2000/svg">
<path d="M16.6727 0H2.59661C1.16257 0 0 1.14626 0 2.56029V16.4396C0 17.8536 1.16252 18.9999 2.59661 18.9999H9.53889L9.55072 12.2104H7.76178C7.52929 12.2104 7.3406 12.025 7.3397 11.7958L7.33112 9.60723C7.33023 9.37674 7.51949 9.18943 7.75325 9.18943H9.53893V7.07473C9.53893 4.62065 11.059 3.28438 13.2793 3.28438H15.1011C15.3342 3.28438 15.5233 3.47072 15.5233 3.7006V5.546C15.5233 5.77579 15.3344 5.96208 15.1014 5.96222L13.9833 5.96273C12.7759 5.96273 12.5421 6.52847 12.5421 7.35872V9.18948H15.1952C15.448 9.18948 15.6442 9.40714 15.6144 9.65468L15.3513 11.8432C15.3261 12.0527 15.146 12.2105 14.9322 12.2105H12.5539L12.5421 19H16.6728C18.1069 19 19.2694 17.8537 19.2694 16.4398V2.56029C19.2693 1.14626 18.1068 0 16.6727 0Z" fill="#616263"/>
</svg>
