<svg width="15" height="15" viewBox="0 0 15 15" fill="none" xmlns="http://www.w3.org/2000/svg">
<g opacity="0.6" clip-path="url(#clip0)">
<path d="M14.9784 9.62346C14.9196 9.44241 14.7508 9.31985 14.5605 9.31985H12.1828L11.4481 7.05873C11.3893 6.87757 11.2206 6.755 11.0302 6.755C10.8399 6.755 10.6711 6.87757 10.6123 7.05873L9.87755 9.31985H5.12243L4.38761 7.05873C4.32878 6.87757 4.1601 6.755 3.96967 6.755C3.77935 6.755 3.61055 6.87757 3.55173 7.05873L2.81702 9.31985H0.439405C0.24909 9.31985 0.0802898 9.44253 0.0214673 9.62346C-0.0373552 9.80462 0.0270749 10.0029 0.181112 10.1149L2.10463 11.5124L1.36992 13.7737C1.3111 13.9547 1.37553 14.153 1.52957 14.2649C1.6836 14.3769 1.89223 14.3769 2.04615 14.2649L3.96967 12.8674L5.89319 14.2649C5.97021 14.3209 6.06084 14.3488 6.15148 14.3488C6.24212 14.3488 6.33275 14.3209 6.40977 14.2649C6.56381 14.153 6.62824 13.9547 6.56942 13.7737L5.83471 11.5124L7.49994 10.3026L9.16516 11.5124L8.43045 13.7737C8.37163 13.9547 8.43606 14.153 8.5901 14.2649C8.74402 14.3769 8.95264 14.3769 9.10668 14.2649L11.0302 12.8674L12.9537 14.2649C13.0307 14.3209 13.1213 14.3488 13.212 14.3488C13.3026 14.3488 13.3933 14.3209 13.4702 14.2649C13.6242 14.153 13.6888 13.9547 13.6298 13.7737L12.8952 11.5124L14.8186 10.1149C14.9728 10.0029 15.0372 9.80462 14.9784 9.62346Z" fill="black"/>
<path d="M3.71134 4.0337L5.63486 5.43125L4.90015 7.69249C4.84133 7.87354 4.90576 8.07186 5.0598 8.18378C5.21383 8.29571 5.42246 8.29571 5.57638 8.18378L7.49991 6.78635L9.42343 8.18378C9.50045 8.23975 9.59108 8.26778 9.68172 8.26778C9.77236 8.26778 9.863 8.23975 9.94001 8.18378C10.0941 8.07198 10.1585 7.87354 10.0997 7.69249L9.36495 5.43125L11.2885 4.0337C11.4425 3.92178 11.5069 3.72345 11.4481 3.5424C11.3893 3.36136 11.2205 3.23879 11.0302 3.23879H8.65255L7.91784 0.977554C7.85902 0.796394 7.69022 0.673828 7.49991 0.673828C7.30948 0.673828 7.14079 0.796394 7.08197 0.977554L6.34726 3.23879H3.96963C3.77932 3.23879 3.61052 3.36136 3.55169 3.5424C3.49287 3.72345 3.5573 3.92178 3.71134 4.0337Z" fill="black"/>
</g>
<defs>
<clipPath id="clip0">
<rect width="15" height="15" fill="white"/>
</clipPath>
</defs>
</svg>
