<svg width="15" height="13" viewBox="0 0 15 13" fill="none" xmlns="http://www.w3.org/2000/svg">
<path d="M14.8863 4.08121L6.38874 0.0218287C6.29 -0.0259239 6.17062 0.0153538 6.12408 0.113692L4.27467 3.98449H5.28234L6.63964 1.14037L14.0069 4.6595L11.703 9.48131L10.406 8.86214V11.4112L11.2037 11.792C11.3032 11.8402 11.421 11.7969 11.4683 11.6982L14.9802 4.34466C15.0279 4.24672 14.9858 4.12815 14.8863 4.08121Z" fill="black"/>
<path d="M9.6169 4.4519H0.199104C0.0902444 4.4519 0 4.54053 0 4.64939V12.7993C0 12.9086 0.0902444 12.998 0.199104 12.998H9.6165C9.72616 12.998 9.8156 12.9086 9.8156 12.7993V4.64939C9.816 4.54053 9.72657 4.4519 9.6169 4.4519ZM9.073 10.6978H8.4761C8.12847 9.80627 7.70072 8.55823 7.05121 8.72496C6.29 8.91921 5.91 10.6978 5.91 10.6978C5.91 10.6978 5.52029 8.69096 4.44626 7.61653C3.37182 6.54209 2.33098 10.6978 2.33098 10.6978H0.908919V5.35313H9.073V10.6978Z" fill="black"/>
<path d="M2.22659 7.16608C2.59447 7.16608 2.8927 6.86785 2.8927 6.49997C2.8927 6.13209 2.59447 5.83386 2.22659 5.83386C1.85871 5.83386 1.56048 6.13209 1.56048 6.49997C1.56048 6.86785 1.85871 7.16608 2.22659 7.16608Z" fill="black"/>
<path d="M6.69547 6.97026C6.8448 6.97026 6.98482 6.95448 7.10946 6.92979C7.25475 6.9913 7.432 7.02894 7.6226 7.02894C8.11429 7.02894 8.51169 6.78896 8.51169 6.49273C8.51169 6.19731 8.11429 5.95734 7.6226 5.95734C7.43847 5.95734 7.26769 5.99093 7.12606 6.0496C7.06738 5.99254 6.98927 5.95734 6.90227 5.95734H6.77358C6.60847 5.95734 6.47856 6.08238 6.45995 6.24142C6.06255 6.28311 5.76672 6.42717 5.76672 6.59876C5.76672 6.80393 6.18233 6.97026 6.69547 6.97026Z" fill="black"/>
</svg>
