<svg width="20" height="19" viewBox="0 0 20 19" fill="none" xmlns="http://www.w3.org/2000/svg">
<path d="M13.5289 0H5.74046C2.57516 0 0 2.53915 0 5.6602V13.3398C0 16.4608 2.57516 19 5.74046 19H13.5289C16.6942 19 19.2694 16.4608 19.2694 13.3398V5.6602C19.2694 2.53915 16.6942 0 13.5289 0ZM17.3309 13.3398C17.3309 15.4102 15.6287 17.0886 13.5289 17.0886H5.74046C3.64071 17.0886 1.9385 15.4102 1.9385 13.3398V5.6602C1.9385 3.58978 3.64071 1.9114 5.74046 1.9114H13.5289C15.6287 1.9114 17.3309 3.58978 17.3309 5.6602V13.3398Z" fill="#616263"/>
<path d="M9.63477 4.58582C6.88672 4.58582 4.65102 6.79027 4.65102 9.49986C4.65102 12.2094 6.88672 14.4139 9.63477 14.4139C12.3828 14.4139 14.6185 12.2095 14.6185 9.49986C14.6185 6.79023 12.3828 4.58582 9.63477 4.58582ZM9.63477 12.5026C7.95291 12.5026 6.58952 11.1582 6.58952 9.49989C6.58952 7.84155 7.95294 6.49722 9.63477 6.49722C11.3166 6.49722 12.68 7.84155 12.68 9.49989C12.68 11.1582 11.3166 12.5026 9.63477 12.5026Z" fill="#616263"/>
<path d="M14.628 5.80027C15.2876 5.80027 15.8222 5.2731 15.8222 4.62279C15.8222 3.97249 15.2876 3.44531 14.628 3.44531C13.9685 3.44531 13.4339 3.97249 13.4339 4.62279C13.4339 5.2731 13.9685 5.80027 14.628 5.80027Z" fill="#616263"/>
</svg>
