<svg width="13" height="13" viewBox="0 0 13 13" fill="none" xmlns="http://www.w3.org/2000/svg">
<g opacity="0.6">
<path d="M0.356724 10.9212C-0.118878 11.3968 -0.118878 12.167 0.356724 12.6426C0.594525 12.8804 0.906174 12.9989 1.21785 12.9989C1.52952 12.9989 1.84117 12.8804 2.07897 12.6426L6.07615 8.64463L4.3539 6.92401L0.356724 10.9212Z" fill="black"/>
<path d="M10.3469 3.51283L12.0878 2.61273L12.9992 0.850727L12.1495 0.000976562L10.3883 0.913228L9.48655 2.65251L7.36906 4.77243L8.22776 5.63275L10.3469 3.51283Z" fill="black"/>
<path d="M10.7283 8.13333L10.5643 8.1171C10.2673 8.1171 9.98566 8.17797 9.7227 8.27537L4.7256 3.27746C4.823 3.01451 4.88387 2.73287 4.88387 2.43583L4.86764 2.27187C4.78161 1.00494 3.73787 0.000976562 2.44904 0.000976562C2.07407 0.000976562 1.72264 0.0926849 1.4053 0.244464L3.02284 1.862C3.10806 1.94722 3.16651 2.04785 3.20546 2.15419C3.31177 2.44149 3.25416 2.77751 3.02284 3.00962C2.86458 3.16789 2.65681 3.24743 2.44904 3.24743C2.35328 3.24743 2.25831 3.22633 2.16741 3.19224C2.06109 3.15166 1.96044 3.09485 1.87522 3.00882L0.257709 1.39209C0.10593 1.70942 0.0142212 2.06085 0.0142212 2.43583C0.0142212 3.72466 1.01818 4.7684 2.28512 4.85442L2.44907 4.87065C2.74612 4.87065 3.02776 4.80978 3.29071 4.71321L8.28698 9.71032C8.19122 9.97327 8.13034 10.2549 8.13034 10.5519L8.14738 10.7159C8.2318 11.9836 9.27634 12.9868 10.5652 12.9868C10.9401 12.9868 11.2924 12.8967 11.6089 12.7433L9.99137 11.1258C9.90695 11.0414 9.84771 10.9399 9.80713 10.8344C9.70081 10.5471 9.75843 10.2103 9.99137 9.97818C10.148 9.81991 10.3574 9.74038 10.5652 9.74038C10.6609 9.74038 10.7551 9.76067 10.8476 9.79556C10.9539 9.83534 11.0554 9.89216 11.139 9.97818L12.7565 11.5957C12.9091 11.2776 13 10.927 13 10.552C12.9992 9.26309 11.9952 8.21935 10.7283 8.13333Z" fill="black"/>
</g>
</svg>
