<svg width="15" height="15" viewBox="0 0 15 15" fill="none" xmlns="http://www.w3.org/2000/svg">
<g opacity="0.6">
<path d="M1.81317 3.25675H0.650195V4.24576H1.81317V7.0055H0.494492V7.99451H1.81317V10.7542H0.494492V11.7433H1.81317V15H4.12086V0H1.81317V3.25675Z" fill="black"/>
<path d="M5.10983 0V15H14.5054V0H5.10983ZM9.80763 4.47897C10.6113 4.47897 11.2627 5.13043 11.2627 5.93407C11.2627 6.7377 10.6113 7.38917 9.80763 7.38917C9.004 7.38917 8.35254 6.7377 8.35254 5.93407C8.35254 5.13043 9.004 4.47897 9.80763 4.47897ZM7.17027 10.521C7.17027 9.06445 8.35105 7.88367 9.80763 7.88367C11.2642 7.88367 12.445 9.06445 12.445 10.521H7.17027Z" fill="black"/>
</g>
</svg>
