<svg width="15" height="15" viewBox="0 0 15 15" fill="none" xmlns="http://www.w3.org/2000/svg">
<g opacity="0.6" clip-path="url(#clip0)">
<path d="M1.90562 4.677L5.37667 5.12323C5.49781 5.43082 6.10817 6.94482 6.22293 7.21574C6.22293 7.21574 6.22293 7.21574 6.22132 7.21574C5.21571 7.71297 4.21009 8.20861 3.20447 8.70584C3.55349 8.64209 3.90729 8.61022 4.26268 8.61022C4.72804 8.61022 5.18383 8.666 5.61891 8.77596C6.49703 8.99908 7.29069 9.35605 8.05725 9.7019C8.74094 10.0095 9.38798 10.3011 10.0334 10.4685C10.1243 10.4924 10.2119 10.5131 10.2996 10.5306C9.5346 8.96402 7.47715 4.74234 7.07076 3.81322C6.87952 3.37496 6.61656 3.2124 6.24365 3.16459L2.167 2.64027C1.60443 2.56855 1.08967 2.96538 1.01636 3.52795C0.946219 4.09053 1.34305 4.60529 1.90562 4.677Z" fill="black"/>
<path d="M0.265723 11.9984C0.378875 12.0797 0.507963 12.1179 0.637052 12.1179C0.665738 12.1179 0.692831 12.1163 0.719923 12.1115C0.888854 12.0892 1.04822 12 1.155 11.8518C1.56776 11.2764 2.20683 10.8238 2.95108 10.5752C3.37819 10.4334 3.82442 10.3617 4.26269 10.3617C5.85159 10.3617 7.2142 11.3115 8.6485 11.8581C9.41665 12.1514 10.2183 12.3681 11.09 12.3681C11.4566 12.3681 11.8359 12.3299 12.2295 12.2422C13.1555 12.0382 13.9491 11.5984 14.5228 10.9816C14.6599 10.8334 14.7842 10.6772 14.8942 10.5099C15.0886 10.2166 15.0073 9.8214 14.7141 9.62697C14.6057 9.55526 14.4846 9.52179 14.3635 9.52179C14.1563 9.52179 13.9539 9.62219 13.8312 9.80706C13.7818 9.88195 13.7276 9.95366 13.6686 10.0238C13.2702 10.4987 12.6726 10.8398 11.9554 10.9975C11.294 11.1426 10.5641 11.0995 9.91231 10.9306C9.22702 10.7521 8.56403 10.4541 7.85962 10.137C7.11059 9.80069 6.33765 9.45167 5.49939 9.23813C5.10097 9.13614 4.68342 9.08673 4.26109 9.08673C3.68577 9.08673 3.10089 9.18074 2.54469 9.36563C2.05862 9.52818 1.60761 9.75447 1.20281 10.0398C0.775702 10.341 0.410748 10.6995 0.11751 11.1075C0.0983857 11.1346 0.0824489 11.1617 0.0681057 11.1904C-0.070545 11.4661 0.00595195 11.8119 0.265723 11.9984Z" fill="black"/>
<path d="M11.8072 9.04055C13.0491 9.04055 14.0559 8.03377 14.0559 6.79185C14.0559 5.54993 13.0491 4.54315 11.8072 4.54315C10.5653 4.54315 9.55853 5.54993 9.55853 6.79185C9.55853 8.03377 10.5653 9.04055 11.8072 9.04055Z" fill="black"/>
</g>
<defs>
<clipPath id="clip0">
<rect width="15" height="15" fill="white"/>
</clipPath>
</defs>
</svg>
