<svg width="13" height="13" viewBox="0 0 13 13" fill="none" xmlns="http://www.w3.org/2000/svg">
<path d="M5.49992 0H0.500041C0.223843 0 0 0.223843 0 0.500041V5.49992C0 5.77612 0.223843 5.99996 0.500041 5.99996H5.49992C5.77612 5.99996 5.99996 5.77612 5.99996 5.49992V0.500041C5.99996 0.223843 5.77612 0 5.49992 0Z" fill="#030104"/>
<path d="M12.4999 0H7.50006C7.22386 0 7.00002 0.223843 7.00002 0.500041V5.49992C7.00002 5.77612 7.22386 5.99996 7.50006 5.99996H12.4999C12.7761 5.99996 13 5.77612 13 5.49992V0.500041C13 0.223843 12.7761 0 12.4999 0ZM11.9999 4.99988H8.0001V1.00008H11.9999V4.99988Z" fill="#030104"/>
<path d="M5.49992 7H0.500041C0.223843 7 0 7.22384 0 7.50004V12.4999C0 12.7761 0.223843 13 0.500041 13H5.49992C5.77612 13 5.99996 12.7761 5.99996 12.4999V7.50004C5.99996 7.22331 5.77612 7 5.49992 7ZM2.36131 11.9999C2.44732 11.8524 2.50021 11.6831 2.50021 11.4998C2.50021 10.9474 2.05252 10.4998 1.50012 10.4998C1.31688 10.4998 1.14753 10.5526 1.00008 10.6387V9.36131C1.14753 9.44732 1.31688 9.50021 1.50012 9.50021C2.05252 9.50021 2.50021 9.05252 2.50021 8.50012C2.50021 8.31688 2.44732 8.14753 2.36131 8.00008H3.63865C3.55264 8.14753 3.49975 8.31688 3.49975 8.50012C3.49975 9.05252 3.94744 9.50021 4.49984 9.50021C4.68308 9.50021 4.85243 9.44732 4.99988 9.36131V10.6387C4.85243 10.5526 4.68308 10.4998 4.49984 10.4998C3.94744 10.4998 3.49975 10.9474 3.49975 11.4998C3.49975 11.6831 3.55264 11.8524 3.63865 11.9999H2.36131Z" fill="#030104"/>
<path d="M12.4999 7H7.50006C7.22386 7 7.00002 7.22384 7.00002 7.50004V9.99971V12.4994C7.00002 12.7756 7.22386 12.9994 7.50006 12.9994H9.99973H12.4994C12.7756 12.9994 12.9994 12.7756 12.9994 12.4994V7.49951C13 7.22331 12.7761 7 12.4999 7ZM8.0001 10.207L10.207 8.00008H11.2931L8.0001 11.2931V10.207ZM8.0001 8.00008H8.7929L8.0001 8.79288V8.00008ZM11.9999 8.70687V9.79243L9.79298 11.9999H8.70689L11.9999 8.70687ZM11.9999 11.9999H11.2066L11.9999 11.2065V11.9999Z" fill="#030104"/>
<path d="M3.00014 10.9998C3.55247 10.9998 4.00022 10.552 4.00022 9.99972C4.00022 9.44739 3.55247 8.99963 3.00014 8.99963C2.44781 8.99963 2.00005 9.44739 2.00005 9.99972C2.00005 10.552 2.44781 10.9998 3.00014 10.9998Z" fill="#030104"/>
</svg>
